<?xml version="1.0" standalone="no"?>
<!DOCTYPE svg PUBLIC "-//W3C//DTD SVG 20010904//EN"
 "http://www.w3.org/TR/2001/REC-SVG-20010904/DTD/svg10.dtd">
<svg version="1.0" xmlns="http://www.w3.org/2000/svg"
 width="250.000000pt" height="250.000000pt" viewBox="0 0 250.000000 250.000000"
 preserveAspectRatio="xMidYMid meet">

<g transform="translate(0.000000,250.000000) scale(0.100000,-0.100000)"
fill="#000000" stroke="none">
<path d="M1188 1873 c17 -2 47 -2 65 0 17 2 3 4 -33 4 -36 0 -50 -2 -32 -4z"/>
<path d="M1200 1754 c-17 -10 -18 -13 -5 -8 11 3 34 10 50 14 27 7 28 8 5 9
-14 0 -36 -7 -50 -15z"/>
<path d="M1462 1698 c-15 -15 -16 -105 0 -114 6 -4 8 -3 5 3 -3 5 -2 35 2 66
4 31 7 57 6 57 0 0 -6 -5 -13 -12z"/>
<path d="M922 1622 c-7 -2 -11 -16 -11 -30 2 -24 2 -24 6 -4 5 26 29 29 63 5
l24 -17 -17 24 c-16 23 -39 31 -65 22z"/>
<path d="M1238 1623 c7 -3 16 -2 19 1 4 3 -2 6 -13 5 -11 0 -14 -3 -6 -6z"/>
<path d="M1623 1623 c9 -2 23 -2 30 0 6 3 -1 5 -18 5 -16 0 -22 -2 -12 -5z"/>
<path d="M862 1523 l-2 -92 -47 -4 -48 -3 48 -2 c32 -1 49 2 53 11 3 8 3 52 1
98 l-3 84 -2 -92z"/>
<path d="M799 1568 c7 -9 10 -27 7 -40 l-6 -23 12 23 c10 19 8 26 -7 40 -18
16 -18 16 -6 0z"/>
<path d="M1050 1556 c0 -2 8 -10 18 -17 15 -13 16 -12 3 4 -13 16 -21 21 -21
13z"/>
<path d="M1361 1436 c-24 -25 -41 -50 -38 -58 4 -10 6 -10 6 2 1 8 20 34 43
57 23 24 40 43 37 43 -3 0 -24 -20 -48 -44z"/>
<path d="M1608 1365 c2 -58 6 -105 10 -105 9 0 3 193 -6 202 -4 4 -6 -40 -4
-97z"/>
<path d="M1663 1430 c0 -25 2 -35 4 -22 2 12 2 32 0 45 -2 12 -4 2 -4 -23z"/>
<path d="M678 1423 c12 -2 30 -2 40 0 9 3 -1 5 -23 4 -22 0 -30 -2 -17 -4z"/>
<path d="M925 1424 c47 -7 113 -8 108 -1 -2 4 -32 6 -66 6 -34 -1 -53 -3 -42
-5z"/>
<path d="M1732 1408 c-14 -14 -16 -44 -3 -52 5 -4 7 3 4 14 -3 11 0 27 7 35
15 18 9 20 -8 3z"/>
<path d="M1799 1408 c7 -10 11 -27 8 -38 -3 -11 -1 -18 4 -14 15 9 10 41 -8
55 -16 13 -17 12 -4 -3z"/>
<path d="M569 1377 c4 -4 111 -6 237 -5 l229 3 -237 5 c-130 3 -234 2 -229 -3z"/>
<path d="M648 1333 c6 -2 18 -2 25 0 6 3 1 5 -13 5 -14 0 -19 -2 -12 -5z"/>
<path d="M843 1333 c31 -2 83 -2 115 0 31 2 5 3 -58 3 -63 0 -89 -1 -57 -3z"/>
<path d="M882 1218 c-7 -7 -12 -19 -11 -27 0 -10 4 -6 10 8 6 15 14 21 25 17
8 -3 12 -2 9 4 -8 13 -18 13 -33 -2z"/>
<path d="M840 1110 c-147 -4 -181 -7 -165 -17 29 -16 337 -16 347 0 5 9 77 13
264 14 141 1 259 4 262 7 6 7 -433 4 -708 -4z"/>
<path d="M1205 1070 l-70 -6 70 -5 c39 -2 75 -1 82 4 7 5 20 4 31 -2 14 -8 24
-6 38 4 17 13 14 14 -31 13 -27 -1 -81 -4 -120 -8z"/>
<path d="M1018 1003 c29 -2 74 -2 100 0 26 2 2 3 -53 3 -55 0 -76 -1 -47 -3z"/>
<path d="M1472 875 c0 -16 2 -22 5 -12 2 9 2 23 0 30 -3 6 -5 -1 -5 -18z"/>
<path d="M1207 870 c3 -11 12 -20 20 -20 8 0 11 5 8 10 -3 6 4 14 17 19 21 9
19 10 -14 10 -31 1 -35 -2 -31 -19z"/>
<path d="M713 843 c9 -2 25 -2 35 0 9 3 1 5 -18 5 -19 0 -27 -2 -17 -5z"/>
<path d="M853 803 c42 -2 112 -2 155 0 42 1 7 3 -78 3 -85 0 -120 -2 -77 -3z"/>
<path d="M963 753 c71 -2 183 -2 250 0 67 1 10 3 -128 3 -137 0 -192 -2 -122
-3z"/>
<path d="M837 713 c-3 -5 43 -7 101 -5 197 4 218 8 60 10 -86 1 -159 -1 -161
-5z"/>
<path d="M1053 663 c48 -2 126 -2 175 0 48 1 8 3 -88 3 -96 0 -136 -2 -87 -3z"/>
</g>
</svg>
