<?xml version="1.0" standalone="no"?>
<!DOCTYPE svg PUBLIC "-//W3C//DTD SVG 20010904//EN"
 "http://www.w3.org/TR/2001/REC-SVG-20010904/DTD/svg10.dtd">
<svg version="1.0" xmlns="http://www.w3.org/2000/svg"
 width="1080.000000pt" height="306.000000pt" viewBox="0 0 1080.000000 306.000000"
 preserveAspectRatio="xMidYMid meet">

<g transform="translate(0.000000,306.000000) scale(0.100000,-0.100000)"
fill="#000000" stroke="none">
<path d="M1345 3016 c-378 -45 -680 -194 -935 -462 -148 -157 -257 -339 -325
-549 -157 -480 -52 -1041 264 -1404 198 -228 418 -375 696 -466 248 -81 642
-84 890 -6 371 115 686 366 866 689 83 149 121 249 161 432 28 125 30 443 4
559 -74 334 -225 606 -454 823 -104 98 -301 223 -447 283 -214 89 -493 127
-720 101z m444 -241 c216 -54 421 -162 579 -304 100 -89 197 -212 242 -306 8
-16 19 -37 26 -45 39 -52 97 -244 120 -393 26 -179 9 -444 -37 -552 -4 -11
-15 -42 -24 -70 -24 -74 -95 -210 -151 -290 -58 -83 -198 -227 -274 -281 -189
-136 -366 -205 -627 -243 -287 -43 -647 53 -899 237 -213 157 -390 395 -454
612 -7 25 -19 63 -25 85 -7 22 -21 98 -31 169 -15 112 -16 144 -6 250 11 107
31 209 60 301 18 57 75 190 88 206 8 8 14 19 14 23 0 26 109 167 195 253 171
171 355 276 609 348 97 27 172 34 336 30 126 -3 175 -8 259 -30z"/>
<path d="M1390 2730 c-88 -9 -225 -38 -295 -63 -67 -24 -215 -97 -215 -106 0
-5 12 -12 27 -16 41 -10 79 -41 94 -77 7 -18 18 -36 23 -40 20 -14 68 -8 93
12 31 24 80 26 111 4 32 -22 30 -77 -4 -109 -34 -32 -65 -32 -102 0 -20 17
-42 25 -66 25 -31 0 -38 -4 -49 -32 -15 -35 -43 -64 -80 -82 -21 -11 -22 -16
-25 -193 l-2 -182 102 -3 103 -3 0 -30 0 -30 -389 -5 -390 -5 -8 -30 c-4 -16
-6 -36 -3 -42 3 -10 116 -13 514 -13 l510 0 16 30 c8 16 15 37 15 47 0 10 -71
89 -160 178 -163 163 -177 184 -137 209 15 9 39 -11 175 -149 180 -184 184
-187 206 -179 14 5 16 27 16 163 l0 158 -37 24 c-61 40 -78 72 -78 142 1 72
19 107 77 143 71 45 157 25 212 -49 16 -22 21 -43 21 -91 0 -53 -4 -68 -29
-100 -15 -21 -40 -42 -55 -49 -14 -6 -28 -13 -31 -14 -2 -2 -5 -74 -5 -159 -2
-127 1 -157 13 -161 9 -4 60 40 143 123 l129 129 0 128 c0 114 -2 132 -20 154
-27 35 -26 78 5 108 31 32 69 32 100 0 31 -30 32 -73 5 -108 -17 -21 -20 -40
-20 -122 l0 -96 73 3 c65 3 72 5 75 24 4 28 66 101 103 119 15 8 55 15 88 15
52 0 65 -4 103 -33 121 -91 102 -264 -37 -328 l-30 -14 -3 -182 c-2 -166 -4
-182 -21 -188 -10 -3 -26 -3 -35 1 -14 5 -16 29 -16 190 l0 184 -27 6 c-42 11
-82 44 -110 92 l-25 42 -62 0 -61 0 -142 -142 -141 -143 27 -50 28 -50 79 -3
c74 -3 81 -1 104 23 33 35 91 35 119 -1 56 -71 -12 -164 -94 -129 -19 7 -35
19 -35 24 0 7 -35 11 -93 11 l-92 0 -20 -36 c-22 -42 -97 -84 -147 -84 -46 0
-108 38 -137 83 l-24 37 -521 -2 -521 -3 2 -141 c0 -83 6 -151 12 -163 l12
-21 937 2 937 3 3 25 c5 33 59 103 97 127 44 26 154 25 191 -3 54 -40 87 -90
92 -142 11 -123 -77 -221 -199 -222 -62 0 -143 56 -169 118 l-10 22 -935 0
-936 0 6 -22 c20 -69 31 -94 43 -105 11 -9 150 -12 558 -12 299 -1 550 2 559
5 8 3 15 12 15 18 0 20 54 65 86 72 71 14 150 -56 140 -125 -7 -47 -32 -80
-73 -98 -49 -20 -91 -10 -135 32 l-36 36 -531 -3 c-337 -2 -533 -7 -539 -13
-6 -6 3 -32 27 -70 l36 -60 683 -3 c660 -2 682 -2 682 17 0 28 57 93 103 118
49 27 133 31 176 9 39 -21 87 -77 101 -121 41 -126 -53 -252 -185 -249 -85 2
-168 60 -190 132 l-6 22 -650 0 c-357 0 -649 -4 -649 -8 0 -5 17 -27 38 -50
l39 -42 511 0 c495 0 512 -1 522 -19 5 -11 7 -27 4 -35 -5 -14 -58 -16 -475
-16 -290 0 -469 -4 -469 -10 0 -5 21 -24 48 -42 l47 -33 510 -5 510 -5 0 -30
0 -30 -432 -3 c-254 -1 -433 -6 -433 -11 0 -10 64 -36 175 -71 335 -104 736
-41 1035 163 74 51 263 247 315 326 306 472 245 1068 -152 1477 -244 252 -615
388 -963 354z m1145 -903 c34 -49 -1 -117 -61 -117 -80 0 -105 104 -32 135 38
15 75 8 93 -18z m-1582 -256 c13 -5 37 -22 53 -38 23 -24 41 -31 86 -36 49 -5
60 -2 89 19 40 29 68 30 103 3 35 -27 36 -77 2 -109 -31 -28 -69 -29 -106 -1
-21 15 -44 21 -84 21 -48 0 -58 -4 -88 -34 -59 -59 -136 -61 -182 -5 -49 58
-30 145 38 175 37 16 57 17 89 5z m1471 -584 c26 -19 18 -61 -12 -65 -45 -7
-72 46 -34 67 22 13 25 13 46 -2z"/>
<path d="M874 1485 c-16 -24 -16 -27 1 -45 33 -37 85 -20 85 27 0 44 -60 57
-86 18z"/>
<path d="M829 2473 c-21 -5 -49 -55 -49 -88 0 -35 50 -85 85 -85 38 0 85 50
85 90 0 58 -60 100 -121 83z"/>
<path d="M660 2397 c-128 -118 -225 -268 -294 -455 -29 -77 -44 -73 222 -70
l237 3 0 180 0 180 -27 13 c-46 22 -76 67 -83 127 -4 30 -10 55 -14 55 -3 0
-22 -15 -41 -33z m19 -244 c54 -45 24 -133 -45 -133 -44 0 -74 29 -74 72 0 64
71 100 119 61z"/>
<path d="M1449 2401 c-22 -23 -29 -39 -29 -68 1 -86 91 -124 151 -64 40 40 40
88 0 130 -39 41 -82 42 -122 2z"/>
<path d="M2154 2224 c-84 -89 -6 -225 110 -193 52 14 86 61 86 116 0 38 -5 50
-34 79 -29 29 -41 34 -81 34 -42 0 -52 -5 -81 -36z"/>
<path d="M1444 1756 c-46 -46 -46 -86 0 -132 22 -22 44 -34 60 -34 116 0 146
150 39 191 -42 16 -64 10 -99 -25z"/>
<path d="M2364 1413 c-29 -5 -69 -50 -83 -92 -15 -47 15 -112 63 -135 42 -20
57 -20 101 -2 49 21 77 70 72 124 -5 49 -28 79 -74 98 -33 14 -40 15 -79 7z"/>
<path d="M1592 1118 c-16 -16 -15 -63 2 -77 20 -17 67 -10 80 11 18 29 -4 72
-39 76 -17 2 -36 -3 -43 -10z"/>
<path d="M1986 959 c-63 -49 -74 -128 -26 -183 54 -61 152 -55 197 13 27 40
29 80 7 126 -29 61 -126 85 -178 44z"/>
<path d="M4517 2084 c-4 -4 -7 -252 -7 -551 l0 -544 128 3 127 3 5 230 c3 141
9 240 16 255 41 89 162 121 246 66 46 -30 51 -59 52 -314 l1 -237 130 0 130 0
3 270 c2 258 1 273 -20 335 -25 71 -86 143 -149 175 -80 42 -286 27 -352 -26
-54 -42 -56 -35 -59 159 l-3 177 -121 3 c-66 1 -123 -1 -127 -4z"/>
<path d="M10255 1931 c-4 -88 -4 -169 0 -180 12 -39 -6 -44 -39 -12 -45 44
-104 61 -208 61 -79 0 -98 -4 -152 -30 -111 -52 -161 -110 -215 -244 -34 -84
-21 -238 28 -340 33 -68 59 -95 138 -148 113 -77 345 -71 417 11 27 30 36 26
36 -13 0 -22 6 -36 16 -40 20 -8 208 -8 228 0 14 6 16 63 16 550 l0 544 -129
0 -128 0 -8 -159z m-77 -378 c20 -16 45 -45 54 -64 20 -38 24 -124 8 -181 -21
-74 -110 -127 -191 -113 -42 7 -112 53 -129 84 -17 34 -30 121 -24 163 21 128
181 192 282 111z"/>
<path d="M3453 2033 c-9 -3 -13 -35 -13 -109 l0 -104 38 -1 c20 -1 64 -2 97
-3 33 -1 90 -3 127 -4 l68 -2 2 -407 3 -408 130 0 130 0 5 410 5 410 95 2 c52
1 130 2 173 2 l77 1 0 99 c0 68 -4 102 -13 109 -13 11 -898 16 -924 5z"/>
<path d="M6530 2025 c-7 -8 -9 -189 -8 -521 l3 -509 355 0 c348 0 356 0 428
24 79 26 144 78 178 142 22 41 27 190 7 210 -7 7 -13 20 -13 29 0 25 -62 84
-114 110 -25 12 -46 25 -46 28 0 4 14 16 30 27 50 33 92 110 97 180 13 163
-70 247 -279 281 -117 19 -622 18 -638 -1z m608 -223 c27 -20 32 -30 32 -63 0
-50 -21 -92 -53 -106 -13 -6 -91 -13 -173 -14 l-149 -3 -3 94 c-1 51 0 100 3
107 4 12 34 14 157 11 141 -3 156 -5 186 -26z m25 -401 c33 -14 47 -27 56 -52
15 -42 14 -55 -5 -95 -27 -57 -55 -64 -251 -64 l-173 0 0 115 0 115 164 0
c140 0 171 -3 209 -19z"/>
<path d="M5829 1790 c-118 -30 -239 -119 -278 -205 -37 -81 -41 -98 -41 -196
0 -88 3 -106 29 -162 42 -92 102 -154 186 -193 123 -56 265 -66 404 -28 78 22
161 81 161 113 0 9 -29 46 -65 81 -49 48 -69 62 -79 55 -52 -38 -68 -46 -117
-55 -30 -6 -74 -8 -99 -4 -74 10 -160 70 -160 111 0 10 63 13 296 13 l297 0
-6 88 c-11 173 -82 284 -227 354 -57 28 -77 32 -165 34 -55 2 -116 -1 -136 -6z
m191 -199 c29 -8 90 -84 90 -112 0 -18 -9 -19 -170 -19 -186 0 -186 0 -154 57
9 16 33 41 53 55 30 23 46 27 96 27 33 -1 71 -4 85 -8z"/>
<path d="M7905 1794 c-53 -8 -169 -46 -207 -67 -42 -23 -46 -36 -23 -75 9 -15
24 -49 34 -77 14 -40 21 -49 37 -47 10 2 22 8 25 13 12 20 121 49 184 49 101
0 165 -42 165 -109 0 -17 -12 -19 -137 -23 -175 -5 -239 -24 -304 -88 -38 -38
-47 -55 -58 -105 -14 -71 0 -133 44 -190 44 -58 94 -77 220 -82 99 -5 115 -3
158 17 26 12 56 33 66 46 22 28 31 22 31 -22 0 -24 5 -33 23 -38 33 -9 200 -7
215 3 11 6 13 61 10 272 -3 228 -6 271 -23 319 -25 73 -110 159 -180 184 -50
17 -218 29 -280 20z m212 -530 c-8 -79 -74 -123 -163 -109 -57 8 -84 34 -84
79 0 25 7 40 26 55 23 18 41 21 127 21 l100 0 -6 -46z"/>
<path d="M8625 1787 c-3 -6 -4 -188 -3 -402 l3 -390 130 0 130 0 5 235 c4 172
9 241 19 259 61 107 234 116 276 15 12 -29 15 -85 15 -270 l0 -234 23 -5 c12
-3 74 -4 137 -3 l115 3 0 270 c0 260 -1 273 -24 336 -26 71 -68 124 -135 167
-39 25 -48 27 -161 27 -112 0 -124 -2 -178 -29 -32 -15 -61 -34 -64 -42 -11
-30 -33 -14 -33 25 0 26 -5 41 -16 45 -32 12 -234 7 -239 -7z"/>
</g>
</svg>
